<?xml version="1.0" encoding="UTF-8"?>
<svg xmlns="http://www.w3.org/2000/svg" xmlns:xlink="http://www.w3.org/1999/xlink" width="57px" height="64px" viewBox="0 0 57 64" version="1.1">
<g id="surface1">
<path style=" stroke:none;fill-rule:nonzero;fill:rgb(63.137255%,47.45098%,86.27451%);fill-opacity:1;" d="M 56.902344 18.765625 C 56.902344 17.695312 56.671875 16.746094 56.207031 15.929688 C 55.75 15.132812 55.066406 14.460938 54.148438 13.929688 C 46.574219 9.570312 38.992188 5.222656 31.417969 0.859375 C 29.375 -0.316406 27.394531 -0.273438 25.367188 0.917969 C 22.355469 2.695312 7.257812 11.328125 2.757812 13.925781 C 0.90625 14.996094 0.00390625 16.636719 0.00390625 18.765625 C 0 27.53125 0.00390625 36.300781 0 45.070312 C 0 46.117188 0.21875 47.046875 0.664062 47.851562 C 1.121094 48.675781 1.816406 49.363281 2.753906 49.90625 C 7.253906 52.507812 22.351562 61.140625 25.367188 62.914062 C 27.394531 64.109375 29.375 64.152344 31.417969 62.972656 C 38.992188 58.609375 46.574219 54.261719 54.152344 49.902344 C 55.089844 49.363281 55.785156 48.671875 56.242188 47.847656 C 56.6875 47.046875 56.90625 46.117188 56.90625 45.066406 C 56.90625 45.066406 56.90625 27.535156 56.902344 18.765625 "/>
<path style=" stroke:none;fill-rule:nonzero;fill:rgb(15.686275%,0%,40.784314%);fill-opacity:1;" d="M 28.539062 31.832031 L 0.664062 47.851562 C 1.121094 48.675781 1.816406 49.363281 2.753906 49.90625 C 7.253906 52.507812 22.351562 61.140625 25.367188 62.914062 C 27.394531 64.109375 29.375 64.152344 31.417969 62.972656 C 38.992188 58.609375 46.574219 54.261719 54.152344 49.902344 C 55.089844 49.363281 55.785156 48.671875 56.242188 47.847656 L 28.539062 31.832031 "/>
<path style=" stroke:none;fill-rule:nonzero;fill:rgb(22.352941%,0%,56.862745%);fill-opacity:1;" d="M 56.902344 18.765625 C 56.902344 17.695312 56.671875 16.746094 56.207031 15.929688 L 28.539062 31.832031 L 56.242188 47.847656 C 56.6875 47.046875 56.90625 46.117188 56.90625 45.066406 C 56.90625 45.066406 56.90625 27.535156 56.902344 18.765625 "/>
<path style=" stroke:none;fill-rule:nonzero;fill:rgb(100%,100%,100%);fill-opacity:1;" d="M 44.953125 25.84375 L 44.953125 28.835938 L 47.953125 28.835938 L 47.953125 25.84375 L 49.453125 25.84375 L 49.453125 28.835938 L 52.453125 28.835938 L 52.453125 30.335938 L 49.453125 30.335938 L 49.453125 33.328125 L 52.453125 33.328125 L 52.453125 34.824219 L 49.453125 34.824219 L 49.453125 37.820312 L 47.953125 37.820312 L 47.953125 34.824219 L 44.953125 34.824219 L 44.953125 37.820312 L 43.453125 37.820312 L 43.453125 34.824219 L 40.453125 34.824219 L 40.453125 33.328125 L 43.453125 33.328125 L 43.453125 30.335938 L 40.453125 30.335938 L 40.453125 28.835938 L 43.453125 28.835938 L 43.453125 25.84375 Z M 47.953125 30.335938 L 44.953125 30.335938 L 44.953125 33.328125 L 47.953125 33.328125 Z M 47.953125 30.335938 "/>
<path style=" stroke:none;fill-rule:nonzero;fill:rgb(100%,100%,100%);fill-opacity:1;" d="M 28.601562 10.804688 C 36.425781 10.804688 43.257812 15.046875 46.917969 21.351562 L 46.882812 21.289062 L 37.675781 26.582031 C 35.863281 23.515625 32.535156 21.449219 28.722656 21.40625 L 28.601562 21.40625 C 22.785156 21.40625 18.070312 26.109375 18.070312 31.917969 C 18.070312 33.816406 18.574219 35.59375 19.457031 37.132812 C 21.273438 40.296875 24.6875 42.429688 28.601562 42.429688 C 32.542969 42.429688 35.972656 40.269531 37.78125 37.070312 L 37.734375 37.148438 L 46.929688 42.464844 C 43.308594 48.714844 36.570312 52.941406 28.835938 53.027344 L 28.601562 53.027344 C 20.753906 53.027344 13.902344 48.761719 10.25 42.421875 C 8.46875 39.328125 7.449219 35.742188 7.449219 31.917969 C 7.449219 20.257812 16.917969 10.804688 28.601562 10.804688 Z M 28.601562 10.804688 "/>
</g>
</svg>
