<?xml version="1.0" encoding="UTF-8"?>
<svg xmlns="http://www.w3.org/2000/svg" xmlns:xlink="http://www.w3.org/1999/xlink" width="64px" height="64px" viewBox="0 0 64 64" version="1.1">
<g id="surface1">
<path style=" stroke:none;fill-rule:nonzero;fill:rgb(100%,40%,0%);fill-opacity:1;" d="M 59.734375 25.578125 L 39.640625 25.578125 C 38.632812 25.578125 37.8125 24.761719 37.8125 23.75 L 37.8125 2.808594 C 37.8125 1.257812 36.554688 0 35.003906 0 L 27.832031 0 C 26.28125 0 25.023438 1.257812 25.023438 2.808594 L 25.023438 23.625 C 25.023438 24.703125 24.152344 25.582031 23.070312 25.585938 L 16.484375 25.617188 C 15.394531 25.625 14.511719 24.742188 14.511719 23.652344 L 14.554688 2.8125 C 14.558594 1.261719 13.300781 0 11.746094 0 L 4.578125 0 C 3.027344 0 1.769531 1.257812 1.769531 2.808594 L 1.769531 61.453125 C 1.769531 62.828125 2.886719 63.945312 4.265625 63.945312 L 59.734375 63.945312 C 61.113281 63.945312 62.230469 62.828125 62.230469 61.453125 L 62.230469 28.070312 C 62.230469 26.695312 61.113281 25.578125 59.734375 25.578125 Z M 50.3125 47.597656 C 50.3125 49.402344 48.847656 50.867188 47.042969 50.867188 L 41.375 50.867188 C 39.566406 50.867188 38.105469 49.402344 38.105469 47.597656 L 38.105469 41.925781 C 38.105469 40.121094 39.566406 38.65625 41.375 38.65625 L 47.042969 38.65625 C 48.847656 38.65625 50.3125 40.121094 50.3125 41.925781 Z M 50.3125 47.597656 "/>
</g>
</svg>
